# xmcd
#
# Track frame offsets:
#	150
#	9450
#	26550
#	42000
#	56730
#	73755
#	96855
#	120195
#	141570
#	164595
#	184770
#	202770
#	218205
#	239655
#
# Disc length: 3452 seconds
#
# Revision: 0
# Processed by: cddbd v1.5.2PL0 Copyright (c) Steve Scherf et al.
# Submitted via: EasyCDDAExtractor 10.5.1.1
#
DISCID=c70d7a0e
DTITLE=Роман Ланкин, Татьяна Ларина - В стихах и в музыке
DYEAR=2011
DGENRE=Авторская песня
TTITLE0=Флейта Моцарта (Ю.Цендровский)
TTITLE1=Фея (С.Эристави)
TTITLE2=Garota de Ipanema (A.C.Jobim - V. de Moraes)
TTITLE3=Куплю тебе платье (Д.Сухарев - С.Никитин)
TTITLE4=''Когда вы песни на земле поёте'' (Е.Евтушенко - Е.Крылатов)
TTITLE5=Oblivion (A.Piazzola)
TTITLE6=Chega de Saudade (A.C.Jobim - V. de Moraes, рус. текст А.Иващенко)
TTITLE7=Была у меня птица (Я.Симон)
TTITLE8=Bebe' (H.Pascoal)
TTITLE9=''Я как рыба плыву по ночам'' (В.Шаламов - П.Аксёнов)
TTITLE10=Дерево (В.Луферов)
TTITLE11=Samba de uma nota so' (A.C.Jobim - N.Mendonca, рус. текст А.Иващенко)
TTITLE12=Corcovado (A.C.Jobim, рус. текст А.Иващенко)
TTITLE13=На далёкой Амазонке (Р.Киплинг, пер. С.Маршак - М.Синельников, В.Берк
TTITLE13=овский)
EXTD=
EXTT0=
EXTT1=
EXTT2=
EXTT3=
EXTT4=
EXTT5=
EXTT6=
EXTT7=
EXTT8=
EXTT9=
EXTT10=
EXTT11=
EXTT12=
EXTT13=
PLAYORDER=
